# xmcd CD database file
#
# Track frame offsets:
#	150
#	35306
#	60854
#	86338
#	132414
#	158736
#	197645
#	227847
#	256307
#	286683
#
# Disc length: 4247 seconds
#
# Revision: 0
# Processed by: cddbd v1.5.2PL0 Copyright (c) Steve Scherf et al.
# Submitted via: CDex 1.70beta2
#
DISCID=7710950a
DTITLE=Justin Carroll - Togetherness
DYEAR=2009
DGENRE=Jazz
TTITLE0=Coded Remorse
TTITLE1=Pointless Exercise
TTITLE2=Stalker
TTITLE3=3 Dot Syndrome
TTITLE4=Feelgood Factor
TTITLE5=By The Reeds
TTITLE6=A Little Stock
TTITLE7=Outside The Box
TTITLE8=Vintage Gear
TTITLE9=The Paper Trail
EXTD=YEAR: 2009
EXTT0=
EXTT1=
EXTT2=
EXTT3=
EXTT4=
EXTT5=
EXTT6=
EXTT7=
EXTT8=
EXTT9=
PLAYORDER=
